<svg xmlns="http://www.w3.org/2000/svg" xmlns:xlink="http://www.w3.org/1999/xlink" version="1.1" width="256" height="256" viewBox="0 0 256 256" xml:space="preserve">

<defs>
</defs>
<g style="stroke: none; stroke-width: 0; stroke-dasharray: none; stroke-linecap: butt; stroke-linejoin: miter; stroke-miterlimit: 10; fill: none; fill-rule: nonzero; opacity: 1;" transform="translate(1.4065934065934016 1.4065934065934016) scale(2.81 2.81)" >
	<path d="M 59.707 42.561 c -13.079 0 -23.72 10.641 -23.72 23.72 S 46.628 90 59.707 90 s 23.72 -10.641 23.72 -23.72 S 72.786 42.561 59.707 42.561 z M 59.707 86 c -10.874 0 -19.72 -8.847 -19.72 -19.72 s 8.846 -19.72 19.72 -19.72 c 10.873 0 19.72 8.847 19.72 19.72 S 70.58 86 59.707 86 z" style="stroke: none; stroke-width: 1; stroke-dasharray: none; stroke-linecap: butt; stroke-linejoin: miter; stroke-miterlimit: 10; fill: rgb(0,0,0); fill-rule: nonzero; opacity: 1;" transform=" matrix(1 0 0 1 0 0) " stroke-linecap="round" />
	<path d="M 61.707 65.373 v -8.87 c 0 -1.104 -0.896 -2 -2 -2 s -2 0.896 -2 2 v 9.777 c 0 0.576 0.249 1.125 0.683 1.505 l 8.66 7.586 c 0.379 0.332 0.849 0.495 1.316 0.495 c 0.557 0 1.11 -0.23 1.506 -0.683 c 0.728 -0.83 0.644 -2.094 -0.188 -2.822 L 61.707 65.373 z" style="stroke: none; stroke-width: 1; stroke-dasharray: none; stroke-linecap: butt; stroke-linejoin: miter; stroke-miterlimit: 10; fill: rgb(0,0,0); fill-rule: nonzero; opacity: 1;" transform=" matrix(1 0 0 1 0 0) " stroke-linecap="round" />
	<path d="M 39.55 86 H 16.034 c -3.011 0 -5.46 -2.449 -5.46 -5.46 V 16.735 c 0 -3.011 2.449 -5.46 5.46 -5.46 h 8.234 c 0.015 0.094 0.041 0.185 0.058 0.279 c 0.031 0.167 0.066 0.332 0.104 0.496 c 0.051 0.223 0.108 0.443 0.17 0.66 c 0.046 0.16 0.093 0.319 0.145 0.476 c 0.072 0.217 0.152 0.431 0.236 0.643 c 0.059 0.15 0.116 0.3 0.181 0.446 c 0.095 0.216 0.2 0.426 0.307 0.636 c 0.068 0.134 0.132 0.27 0.205 0.401 c 0.127 0.228 0.266 0.448 0.406 0.668 c 0.066 0.103 0.126 0.21 0.195 0.311 c 0.215 0.315 0.443 0.622 0.685 0.915 c 0.024 0.029 0.052 0.056 0.076 0.085 c 0.221 0.263 0.451 0.518 0.692 0.761 c 0.092 0.093 0.191 0.178 0.286 0.268 c 0.182 0.173 0.364 0.344 0.556 0.505 c 0.116 0.097 0.237 0.187 0.356 0.281 c 0.182 0.142 0.365 0.283 0.555 0.415 c 0.131 0.091 0.266 0.176 0.4 0.263 c 0.189 0.121 0.379 0.239 0.575 0.35 c 0.142 0.081 0.286 0.157 0.431 0.232 c 0.199 0.103 0.4 0.2 0.604 0.292 c 0.15 0.067 0.299 0.133 0.452 0.194 c 0.211 0.085 0.426 0.162 0.643 0.236 c 0.153 0.052 0.305 0.105 0.46 0.151 c 0.228 0.068 0.461 0.124 0.695 0.179 c 0.151 0.035 0.3 0.075 0.452 0.105 c 0.259 0.051 0.524 0.086 0.789 0.121 c 0.132 0.017 0.262 0.042 0.395 0.055 c 0.4 0.039 0.805 0.062 1.216 0.062 h 5.646 c 0.41 0 0.815 -0.023 1.216 -0.062 c 0.133 -0.013 0.263 -0.037 0.395 -0.055 c 0.265 -0.034 0.529 -0.07 0.789 -0.121 c 0.153 -0.03 0.302 -0.069 0.452 -0.105 c 0.234 -0.055 0.466 -0.111 0.695 -0.179 c 0.155 -0.046 0.307 -0.099 0.46 -0.151 c 0.217 -0.074 0.432 -0.151 0.643 -0.236 c 0.153 -0.062 0.302 -0.127 0.452 -0.194 c 0.205 -0.092 0.406 -0.189 0.604 -0.292 c 0.145 -0.075 0.289 -0.152 0.431 -0.232 c 0.196 -0.111 0.386 -0.229 0.575 -0.35 c 0.135 -0.086 0.269 -0.171 0.4 -0.263 c 0.19 -0.132 0.373 -0.273 0.555 -0.415 c 0.119 -0.093 0.241 -0.183 0.356 -0.281 c 0.192 -0.161 0.374 -0.333 0.556 -0.505 c 0.095 -0.09 0.194 -0.175 0.286 -0.268 c 0.241 -0.244 0.471 -0.498 0.692 -0.761 c 0.024 -0.029 0.052 -0.055 0.076 -0.085 c 0.242 -0.294 0.47 -0.6 0.685 -0.915 c 0.069 -0.101 0.129 -0.208 0.195 -0.311 c 0.14 -0.219 0.279 -0.439 0.406 -0.668 c 0.073 -0.131 0.137 -0.267 0.205 -0.401 c 0.107 -0.21 0.212 -0.42 0.307 -0.636 c 0.064 -0.147 0.122 -0.297 0.181 -0.446 c 0.083 -0.212 0.164 -0.425 0.236 -0.643 c 0.052 -0.157 0.099 -0.316 0.145 -0.476 c 0.063 -0.218 0.119 -0.438 0.17 -0.66 c 0.038 -0.165 0.073 -0.33 0.104 -0.496 c 0.017 -0.094 0.043 -0.184 0.058 -0.279 h 8.233 c 3.011 0 5.46 2.449 5.46 5.46 v 21.099 c 0 1.104 0.896 2 2 2 s 2 -0.896 2 -2 V 16.735 c 0 -5.216 -4.244 -9.46 -9.46 -9.46 H 52.722 h -5.069 C 47.146 3.18 43.645 0 39.415 0 s -7.731 3.18 -8.238 7.275 h -5.069 H 16.034 c -5.216 0 -9.46 4.244 -9.46 9.46 V 80.54 c 0 5.216 4.244 9.46 9.46 9.46 H 39.55 c 1.104 0 2 -0.896 2 -2 S 40.655 86 39.55 86 z M 33.197 11.275 c 0.584 0 1.14 -0.256 1.52 -0.7 s 0.547 -1.032 0.457 -1.609 c -0.04 -0.254 -0.059 -0.471 -0.059 -0.665 C 35.114 5.929 37.043 4 39.415 4 s 4.301 1.929 4.301 4.301 c 0 0.194 -0.02 0.411 -0.059 0.665 c -0.09 0.577 0.077 1.166 0.457 1.609 s 0.935 0.7 1.52 0.7 h 4.841 c -0.026 0.107 -0.052 0.214 -0.082 0.32 c -0.026 0.092 -0.05 0.186 -0.08 0.277 c -0.06 0.186 -0.129 0.367 -0.201 0.547 c -0.024 0.059 -0.043 0.12 -0.068 0.178 c -0.1 0.234 -0.211 0.463 -0.331 0.686 c -0.035 0.065 -0.076 0.127 -0.113 0.192 c -0.09 0.157 -0.182 0.313 -0.282 0.464 c -0.054 0.081 -0.111 0.159 -0.168 0.238 c -0.092 0.129 -0.185 0.256 -0.284 0.379 c -0.064 0.08 -0.13 0.159 -0.197 0.237 c -0.101 0.117 -0.205 0.231 -0.312 0.343 c -0.07 0.073 -0.14 0.146 -0.213 0.217 c -0.117 0.113 -0.238 0.222 -0.361 0.328 c -0.069 0.06 -0.136 0.122 -0.207 0.179 c -0.161 0.131 -0.329 0.255 -0.5 0.374 c -0.038 0.026 -0.073 0.055 -0.111 0.081 c -0.209 0.141 -0.426 0.272 -0.648 0.394 c -0.071 0.039 -0.144 0.072 -0.216 0.109 c -0.156 0.08 -0.313 0.158 -0.475 0.229 c -0.09 0.039 -0.182 0.074 -0.273 0.11 c -0.15 0.06 -0.301 0.116 -0.455 0.167 c -0.097 0.032 -0.196 0.063 -0.294 0.091 c -0.156 0.045 -0.314 0.085 -0.473 0.122 c -0.098 0.022 -0.196 0.046 -0.295 0.065 c -0.175 0.033 -0.352 0.059 -0.53 0.081 c -0.086 0.011 -0.172 0.025 -0.259 0.034 c -0.267 0.025 -0.536 0.041 -0.809 0.041 h -5.646 c -0.273 0 -0.543 -0.016 -0.809 -0.041 c -0.087 -0.008 -0.171 -0.023 -0.257 -0.034 c -0.179 -0.023 -0.357 -0.048 -0.533 -0.082 c -0.098 -0.019 -0.195 -0.042 -0.292 -0.064 c -0.161 -0.037 -0.32 -0.077 -0.477 -0.123 c -0.097 -0.028 -0.194 -0.058 -0.29 -0.09 c -0.156 -0.052 -0.309 -0.109 -0.461 -0.169 c -0.089 -0.036 -0.179 -0.07 -0.267 -0.108 c -0.165 -0.072 -0.326 -0.152 -0.485 -0.234 c -0.068 -0.035 -0.139 -0.067 -0.206 -0.104 c -0.223 -0.123 -0.441 -0.255 -0.652 -0.397 c -0.03 -0.02 -0.058 -0.044 -0.088 -0.065 c -0.179 -0.124 -0.354 -0.254 -0.523 -0.391 c -0.067 -0.055 -0.131 -0.114 -0.197 -0.171 c -0.127 -0.11 -0.252 -0.221 -0.372 -0.338 c -0.07 -0.068 -0.137 -0.139 -0.205 -0.209 c -0.11 -0.114 -0.216 -0.231 -0.319 -0.351 c -0.065 -0.076 -0.129 -0.152 -0.191 -0.229 c -0.101 -0.126 -0.197 -0.256 -0.29 -0.388 c -0.055 -0.077 -0.11 -0.152 -0.162 -0.231 c -0.101 -0.153 -0.196 -0.312 -0.287 -0.472 c -0.035 -0.062 -0.074 -0.121 -0.108 -0.184 c -0.12 -0.224 -0.232 -0.453 -0.332 -0.688 c -0.024 -0.057 -0.043 -0.116 -0.066 -0.173 c -0.073 -0.182 -0.142 -0.365 -0.203 -0.552 c -0.029 -0.09 -0.053 -0.183 -0.079 -0.275 c -0.03 -0.106 -0.057 -0.214 -0.083 -0.322 H 33.197 z" style="stroke: none; stroke-width: 1; stroke-dasharray: none; stroke-linecap: butt; stroke-linejoin: miter; stroke-miterlimit: 10; fill: rgb(0,0,0); fill-rule: nonzero; opacity: 1;" transform=" matrix(1 0 0 1 0 0) " stroke-linecap="round" />
</g>
</svg>