<svg xmlns="http://www.w3.org/2000/svg" xmlns:xlink="http://www.w3.org/1999/xlink" version="1.1" width="256" height="256" viewBox="0 0 256 256" xml:space="preserve">

<defs>
</defs>
<g style="stroke: none; stroke-width: 0; stroke-dasharray: none; stroke-linecap: butt; stroke-linejoin: miter; stroke-miterlimit: 10; fill: none; fill-rule: nonzero; opacity: 1;" transform="translate(1.4065934065934016 1.4065934065934016) scale(2.81 2.81)" >
	<path d="M 26.296 49.674 h -5.088 c -0.552 0 -1 -0.447 -1 -1 s 0.448 -1 1 -1 h 5.088 c 2.254 0 4.088 -1.834 4.088 -4.088 c 0 -2.254 -1.834 -4.088 -4.088 -4.088 h -0.591 c -3.357 0 -6.088 -2.731 -6.088 -6.088 s 2.731 -6.088 6.088 -6.088 h 3.214 c 0.552 0 1 0.448 1 1 s -0.448 1 -1 1 h -3.214 c -2.254 0 -4.088 1.834 -4.088 4.088 c 0 2.254 1.834 4.088 4.088 4.088 h 0.591 c 3.357 0 6.088 2.731 6.088 6.088 C 32.384 46.942 29.653 49.674 26.296 49.674 z" style="stroke: none; stroke-width: 1; stroke-dasharray: none; stroke-linecap: butt; stroke-linejoin: miter; stroke-miterlimit: 10; fill: rgb(0,0,0); fill-rule: nonzero; opacity: 1;" transform=" matrix(1 0 0 1 0 0) " stroke-linecap="round" />
	<path d="M 46.928 49.674 h -3.856 c -2.971 0 -5.388 -2.417 -5.388 -5.388 V 32.709 c 0 -2.971 2.417 -5.388 5.388 -5.388 h 3.856 c 2.972 0 5.389 2.417 5.389 5.388 v 11.576 C 52.316 47.257 49.899 49.674 46.928 49.674 z M 43.072 29.321 c -1.868 0 -3.388 1.52 -3.388 3.388 v 11.576 c 0 1.869 1.52 3.388 3.388 3.388 h 3.856 c 1.868 0 3.389 -1.52 3.389 -3.388 V 32.709 c 0 -1.868 -1.521 -3.388 -3.389 -3.388 H 43.072 z" style="stroke: none; stroke-width: 1; stroke-dasharray: none; stroke-linecap: butt; stroke-linejoin: miter; stroke-miterlimit: 10; fill: rgb(0,0,0); fill-rule: nonzero; opacity: 1;" transform=" matrix(1 0 0 1 0 0) " stroke-linecap="round" />
	<path d="M 64.296 49.674 h -5.089 c -0.553 0 -1 -0.447 -1 -1 s 0.447 -1 1 -1 h 5.089 c 2.254 0 4.088 -1.834 4.088 -4.088 c 0 -2.254 -1.834 -4.088 -4.088 -4.088 h -0.592 c -3.356 0 -6.088 -2.731 -6.088 -6.088 s 2.731 -6.088 6.088 -6.088 h 3.214 c 0.553 0 1 0.448 1 1 s -0.447 1 -1 1 h -3.214 c -2.254 0 -4.088 1.834 -4.088 4.088 c 0 2.254 1.834 4.088 4.088 4.088 h 0.592 c 3.356 0 6.088 2.731 6.088 6.088 C 70.384 46.942 67.652 49.674 64.296 49.674 z" style="stroke: none; stroke-width: 1; stroke-dasharray: none; stroke-linecap: butt; stroke-linejoin: miter; stroke-miterlimit: 10; fill: rgb(0,0,0); fill-rule: nonzero; opacity: 1;" transform=" matrix(1 0 0 1 0 0) " stroke-linecap="round" />
	<path d="M 45 90 c -0.354 0 -0.682 -0.188 -0.862 -0.492 l -8.199 -13.917 C 18.678 71.413 6.66 56.156 6.66 38.34 C 6.66 17.199 23.859 0 45 0 s 38.34 17.199 38.34 38.34 c 0 17.816 -12.018 33.072 -29.278 37.251 l -8.2 13.917 C 45.682 89.813 45.354 90 45 90 z M 45 2 C 24.962 2 8.66 18.302 8.66 38.34 c 0 17.024 11.575 31.582 28.149 35.401 c 0.268 0.062 0.498 0.23 0.637 0.467 L 45 87.03 l 7.555 -12.822 c 0.139 -0.236 0.369 -0.405 0.637 -0.467 C 69.765 69.922 81.34 55.364 81.34 38.34 C 81.34 18.302 65.038 2 45 2 z" style="stroke: none; stroke-width: 1; stroke-dasharray: none; stroke-linecap: butt; stroke-linejoin: miter; stroke-miterlimit: 10; fill: rgb(0,0,0); fill-rule: nonzero; opacity: 1;" transform=" matrix(1 0 0 1 0 0) " stroke-linecap="round" />
</g>
</svg>