<svg id="Group_283" data-name="Group 283" xmlns="http://www.w3.org/2000/svg" width="15.644" height="18.543" viewBox="0 0 15.644 18.543">
  <path id="Path_293" data-name="Path 293" d="M14.682,7.862a3.921,3.921,0,0,0,2.411,2.987,2.642,2.642,0,0,0,1.77,0,4,4,0,0,0,2.419-2.983c.184-.015.426-.273.687-1.2.357-1.263-.023-1.451-.346-1.421a3.348,3.348,0,0,0,.138-.518c.545-3.275-1.067-3.386-1.067-3.386a2.487,2.487,0,0,0-.971-.9A3.281,3.281,0,0,0,17.73.014a2.975,2.975,0,0,0-.795.15h0a3.492,3.492,0,0,0-.875.449,4.589,4.589,0,0,0-.9.745,3.646,3.646,0,0,0-.971,1.7A3.7,3.7,0,0,0,14.2,4.729h0a3.237,3.237,0,0,0,.138.518c-.323-.031-.7.157-.346,1.421C14.256,7.589,14.5,7.847,14.682,7.862Z" transform="translate(-10.161 0)" fill="#211F1D"/>
  <path id="Path_294" data-name="Path 294" d="M18.063,30.035a12.177,12.177,0,0,1-3.555-1.62L13.263,32.35l-.234.741,0-.012-.2.63-.657-1.862c1.613-2.25-.326-2.227-.434-2.223S9.685,29.6,11.3,31.847l-.657,1.862-.2-.63,0,.012L10.2,32.35,8.952,28.415A12.177,12.177,0,0,1,5.4,30.035c-1.463.372-1.532,2.062-1.474,2.895,0,0,.084,1.133.169,1.632a15.006,15.006,0,0,0,7.64,1.858,14.96,14.96,0,0,0,7.64-1.858c.084-.5.169-1.632.169-1.632C19.594,32.1,19.525,30.408,18.063,30.035Z" transform="translate(-3.909 -17.877)" fill="#211F1D"/>
</svg>
