<svg id="Group_359" data-name="Group 359" xmlns="http://www.w3.org/2000/svg" width="62.332" height="63.725" viewBox="0 0 62.332 63.725">
  <path id="Path_315" data-name="Path 315" d="M302.334,201.231H275.168c-1.5,0-2.024-.574-1.89-2.077a14.255,14.255,0,0,1,3.348-7.8,19.588,19.588,0,0,1,10.4-6.634,1.564,1.564,0,0,0,.766-.5,16.832,16.832,0,0,1,3.472-3.358,2.054,2.054,0,0,1,.744-.428c.551-.091.659-.4.66-.886,0-.7.081-1.393.085-2.09a1.083,1.083,0,0,0-.215-.641,13.65,13.65,0,0,1-2.641-5.462,1.6,1.6,0,0,0-.615-.995,5.365,5.365,0,0,1-1.8-3.174,5.59,5.59,0,0,1,.492-4.44.865.865,0,0,0-.021-.614,14.416,14.416,0,0,1,.028-9.8,13.252,13.252,0,0,1,7.285-7.6,20.541,20.541,0,0,1,8.289-1.675,1.476,1.476,0,0,1,1.465.9c.259.536.515,1.074.813,1.588a.787.787,0,0,0,.488.36c3.822.522,6.175,2.821,7.447,6.3a14.759,14.759,0,0,1,.156,10.2.594.594,0,0,0,0,.424,6.614,6.614,0,0,1,.268,5.017,4.57,4.57,0,0,1-2.02,2.953.807.807,0,0,0-.287.454,16.285,16.285,0,0,1-2.734,5.768.946.946,0,0,0-.139.569c.022.8.066,1.6.117,2.4.018.277-.013.45-.359.461-.678.021-1.355.1-2.033.111a.456.456,0,0,1-.342-.283c-.08-1.239-.156-2.48-.166-3.721a1.325,1.325,0,0,1,.376-.909,7.908,7.908,0,0,0,1.99-3.281,25.169,25.169,0,0,0,.8-2.733,1.513,1.513,0,0,1,1.16-1.21,1.159,1.159,0,0,0,.661-.551,4.963,4.963,0,0,0,.456-3.172,1.049,1.049,0,0,0-.4-.538,1.321,1.321,0,0,1-.444-1.8,8.642,8.642,0,0,0,1.111-5.053,11.318,11.318,0,0,0-1.613-5.882,5.739,5.739,0,0,0-4.973-2.811A1.659,1.659,0,0,1,303.7,147.5a9.975,9.975,0,0,0-.666-1.319.689.689,0,0,0-.5-.3,14.689,14.689,0,0,0-8.283,2.639,10.349,10.349,0,0,0-4.211,10.352,18.991,18.991,0,0,0,.929,3.325,1.6,1.6,0,0,1-.367,1.77,2.138,2.138,0,0,0-.544,1.106,4.333,4.333,0,0,0,.676,2.821,1.125,1.125,0,0,0,.6.407,1.328,1.328,0,0,1,1.031,1.19,11.386,11.386,0,0,0,1.819,4.877,5.36,5.36,0,0,0,.777.938,1.751,1.751,0,0,1,.6,1.4c-.065,1.24-.064,2.488-.206,3.719a2.754,2.754,0,0,0,1.614,3.074,8.412,8.412,0,0,0,4.693,1.1c.621-.056.923-.05.723.772a4.612,4.612,0,0,0-.043,1.068q0,7.045,0,14.09Zm-26.111-2.816h12.084c-.162-.225-.261-.374-.371-.513-1.049-1.315-2.106-2.624-3.149-3.944a1.428,1.428,0,0,1,.317-2.31c.854-.617,1.717-1.22,2.567-1.843.123-.09.292-.273.271-.378-.134-.637-.317-1.264-.482-1.89C281.749,188.888,276.845,193.85,276.223,198.415Zm15.27-14.205c-.45.518-.9,1-1.3,1.518a.913.913,0,0,0-.141.675c.26,1.107.561,2.2.855,3.3a1.372,1.372,0,0,1-.541,1.575c-.723.537-1.462,1.052-2.192,1.579-.144.1-.277.224-.437.355,1.365,1.706,2.685,3.37,4.028,5.014a.845.845,0,0,0,.577.218c.884.023,1.768.01,2.652.01h1.01Zm3.276,1.275,3.122,9.8.163-.013a3.342,3.342,0,0,0,.142-.346c.4-1.37.782-2.744,1.192-4.11a1.742,1.742,0,0,0-.07-1.32c-.315-.676-.547-1.39-.845-2.075a.957.957,0,0,0-.415-.462C297.006,186.466,295.938,186,294.77,185.485Z" transform="translate(-273.258 -143.053)" fill="#fff"/>
  <path id="Path_316" data-name="Path 316" d="M444.135,341.347c-4.084,0-8.168-.037-12.251.019a2.959,2.959,0,0,1-3-3.023c.033-5.836.01-11.673.013-17.51a2.818,2.818,0,0,1,3.024-3.035c2.025,0,4.05-.017,6.074.01.486.006.617-.158.6-.614-.031-.662-.017-1.327,0-1.99a2.816,2.816,0,0,1,2.965-2.945q2.578-.014,5.156,0a2.823,2.823,0,0,1,2.97,2.992c.005.647.032,1.3-.009,1.939-.032.509.163.623.64.618,1.991-.024,3.982.029,5.972-.021a2.978,2.978,0,0,1,3.1,3.085q-.084,8.729,0,17.458a3.012,3.012,0,0,1-3.044,3.039C452.269,341.3,448.2,341.347,444.135,341.347Zm0-20.778q-5.945,0-11.889,0c-.374,0-.6.046-.6.517.019,2.551,0,5.1.013,7.654a1.365,1.365,0,0,0,1.415,1.531c2.16.028,4.32.008,6.48.016.316,0,.421-.141.413-.434-.009-.323-.011-.647,0-.969a2.732,2.732,0,0,1,2.618-2.741c1.018-.053,2.042-.046,3.06,0a2.618,2.618,0,0,1,2.466,1.886,6.586,6.586,0,0,1,.163,1.714c0,.425.142.553.561.55,2.024-.018,4.048,0,6.072-.009,1.166,0,1.677-.519,1.678-1.689q0-3.674,0-7.348c0-.67,0-.672-.674-.672Zm12.425,12.4c-1.423.026-2.81.069-4.2.073-3.437.011-6.875.024-10.312,0s-6.891.122-10.369-.1c-.006.121-.021.288-.021.454,0,1.532.014,3.063-.01,4.594-.007.456.109.608.593.607q11.894-.023,23.788-.012c.178,0,.357-.021.529-.033ZM444.115,317.8c.782,0,1.565-.01,2.347,0,.333.006.453-.123.444-.451q-.024-.943,0-1.888c.008-.339-.143-.439-.462-.437q-2.322.014-4.643,0c-.339,0-.451.139-.446.457.01.612.02,1.225,0,1.837-.015.395.158.494.518.485C442.618,317.783,443.366,317.8,444.115,317.8Zm.024,11.1c-.306,0-.613.014-.918,0-.342-.021-.518.1-.481.462a2.563,2.563,0,0,1,0,.459c-.029.354.126.484.479.472a16.021,16.021,0,0,1,1.734,0c.582.043.569-.3.572-.7s.007-.764-.57-.694A6.949,6.949,0,0,1,444.139,328.9Z" transform="translate(-397.048 -277.643)" fill="#211F1D"/>
</svg>
