<svg id="Group_360" data-name="Group 360" xmlns="http://www.w3.org/2000/svg" width="54.582" height="57.887" viewBox="0 0 54.582 57.887">
  <path id="Path_317" data-name="Path 317" d="M410.395,235.142H355.813c.116-1.06.17-2.091.35-3.1.851-4.77,4-7.606,8.176-9.511,2.58-1.178,5.232-2.2,7.8-3.4a11.553,11.553,0,0,0,2.371-1.708,2.053,2.053,0,0,0,.693-1.647c0-1.247.04-2.493.041-3.74a.887.887,0,0,0-.181-.57,10.09,10.09,0,0,1-2.208-4.076c-.185-.583-.276-1.195-.438-1.786-.047-.17-.158-.411-.294-.455a3.138,3.138,0,0,1-1.926-2.34,6.039,6.039,0,0,1-.315-3.764c.131-.411.393-.779.543-1.186a1.784,1.784,0,0,0,.168-.919,30.67,30.67,0,0,1-.9-7.613,12.872,12.872,0,0,1,2.047-7.077,10.65,10.65,0,0,1,5.9-4.175,17.032,17.032,0,0,1,7.908-.6,7.123,7.123,0,0,1,4.255,2.11,1.9,1.9,0,0,0,.878.408,7.727,7.727,0,0,1,5.7,5.885,16.653,16.653,0,0,1,.228,6.949c-.239,1.5-.639,2.977-.951,4.468a.67.67,0,0,0,.088.481,4.706,4.706,0,0,1,.534,4.279,7.531,7.531,0,0,1-.755,1.893,3.231,3.231,0,0,1-1.12,1.045,1.072,1.072,0,0,0-.574.8,13.327,13.327,0,0,1-2.011,5.042c-.039.058-.064.135-.118.173-.71.5-.687,1.227-.647,1.975.053.981.107,1.964.11,2.946a2.326,2.326,0,0,0,.776,1.665,9.455,9.455,0,0,0,3.093,1.956c2.439,1.066,4.916,2.051,7.325,3.18a13.778,13.778,0,0,1,6.355,5.484A13.992,13.992,0,0,1,410.395,235.142Zm-3.208-2.747a8.3,8.3,0,0,0-2.335-4.722,13.928,13.928,0,0,0-4.141-2.756c-2.356-1.036-4.751-1.983-7.115-3a10.894,10.894,0,0,1-3.651-2.438,4.3,4.3,0,0,1-1.438-2.514c-.143-2.082-.119-4.175-.141-6.264a.9.9,0,0,1,.266-.518,9.391,9.391,0,0,0,1.095-1.165,11.638,11.638,0,0,0,1.717-5.031c.073-.753.1-.809.844-.814a.88.88,0,0,0,.935-.617,18.2,18.2,0,0,0,.565-2.334,1.287,1.287,0,0,0-.8-1.454.6.6,0,0,1-.353-.84c.37-1.314.76-2.628,1.034-3.963a16.359,16.359,0,0,0,.133-7.206,5.245,5.245,0,0,0-3.195-4.028,10.072,10.072,0,0,0-1.729-.43,1.19,1.19,0,0,1-.757-.479,4.3,4.3,0,0,0-1.109-1.009,6.569,6.569,0,0,0-3.027-.78,16.7,16.7,0,0,0-4.914.418,7.875,7.875,0,0,0-5.513,4.1,10.664,10.664,0,0,0-1.084,4.2,27.685,27.685,0,0,0,1.111,9.048c.127.468.115.8-.39,1.026a1.148,1.148,0,0,0-.716,1.239,18.866,18.866,0,0,0,.536,2.446.873.873,0,0,0,1.007.663c.572-.064.767.221.8.761a10.732,10.732,0,0,0,1.224,4.214,4.144,4.144,0,0,0,1.753,2.1.568.568,0,0,1,.187.438c.006,1.633.021,3.267-.026,4.9a6.724,6.724,0,0,1-.3,1.96,6.087,6.087,0,0,1-2.23,2.8,20.576,20.576,0,0,1-4.549,2.385c-2.269.97-4.56,1.9-6.77,2.991a9.138,9.138,0,0,0-3.941,3.544,9.276,9.276,0,0,0-1.128,3.135Z" transform="translate(-355.813 -177.256)" fill="#211F1D"/>
</svg>
